<svg width="511" height="423" viewBox="0 0 511 423" fill="none" xmlns="http://www.w3.org/2000/svg">
<path fill-rule="evenodd" clip-rule="evenodd" d="M130.806 256.061L141.559 271.788C145.58 277.668 153.768 278.897 159.369 274.461C165.195 269.847 165.633 261.184 160.302 256.034C160.302 256.034 148.253 247.663 143.932 245.395C131.914 239.086 123.761 245.758 130.806 256.061Z" fill="#5486E0"/>
<path fill-rule="evenodd" clip-rule="evenodd" d="M132.155 253.252L142.908 268.979C146.929 274.858 155.117 276.088 160.717 271.651C166.543 267.037 166.982 258.375 161.651 253.224C161.651 253.224 149.602 244.853 145.281 242.585C133.263 236.276 125.11 242.949 132.155 253.252Z" fill="white"/>
<path fill-rule="evenodd" clip-rule="evenodd" d="M152.195 268.472C149.304 266.413 148.063 262.584 149.412 259.127L158.84 234.971C160.433 230.889 165.034 228.87 169.117 230.464C173.201 232.057 175.218 236.657 173.625 240.74L164.197 264.896C162.604 268.978 158.003 270.996 153.92 269.402C153.295 269.159 152.717 268.844 152.195 268.472Z" fill="#FFB67C"/>
<path fill-rule="evenodd" clip-rule="evenodd" d="M163.314 246.761L162.223 246.325C155.719 243.729 152.552 236.353 155.148 229.85L158.86 220.554C160.736 215.858 166.063 213.571 170.759 215.446L178.394 218.494C183.091 220.369 185.378 225.695 183.504 230.391L179.792 239.687C177.195 246.19 169.818 249.357 163.314 246.761Z" fill="#0099F7"/>
<path fill-rule="evenodd" clip-rule="evenodd" d="M161.605 224.708C161.561 225.625 161.645 226.534 161.849 227.411C161.645 226.451 161.57 225.553 161.605 224.708Z" fill="#434785"/>
<path fill-rule="evenodd" clip-rule="evenodd" d="M221.545 217.229C221.076 216.861 222.141 213.824 221.663 213.447C212.971 206.594 201.065 185.69 186.525 189.738C182.584 190.835 174.033 192.678 163.603 219.736C163.523 219.942 163.453 220.15 163.389 220.358C163.344 220.495 163.306 220.635 163.268 220.775C163.181 221.105 163.109 221.435 163.057 221.766C163.055 221.782 163.053 221.799 163.05 221.814C163.023 221.991 163.002 222.167 162.985 222.343C162.974 222.467 162.962 222.591 162.956 222.718C162.953 222.755 162.952 222.793 162.95 222.83C162.916 223.675 162.989 224.573 163.194 225.534C163.733 227.857 165.1 229.956 167.096 231.379C167.761 231.852 168.495 232.25 169.291 232.557C174.403 234.527 180.144 231.981 182.114 226.869C182.714 225.314 183.306 223.834 183.891 222.42C184.516 220.907 185.133 219.472 185.74 218.113C188.418 212.53 189.738 211.989 192.545 212.115C198.167 212.368 201.583 226.755 207.841 231.688C208.336 232.078 208.826 232.465 209.312 232.846C213.626 236.225 219.86 235.465 223.238 231.153C226.616 226.84 225.858 220.606 221.545 217.229Z" fill="#535FE9"/>
<mask id="mask0" mask-type="alpha" maskUnits="userSpaceOnUse" x="147" y="216" width="355" height="207">
<path fill-rule="evenodd" clip-rule="evenodd" d="M147.878 216.563H501.551V422.111H147.878V216.563Z" fill="white"/>
</mask>
<g mask="url(#mask0)">
<path opacity="0.241338" fill-rule="evenodd" clip-rule="evenodd" d="M346.164 219.717L151.63 332.016C146.627 334.904 146.627 342.125 151.63 345.013L279.723 418.958C287.007 423.163 295.981 423.163 303.265 418.958L497.799 306.659C502.801 303.771 502.801 296.55 497.799 293.662L369.706 219.717C362.422 215.512 353.448 215.512 346.164 219.717Z" fill="#D7D0EB"/>
</g>
<path fill-rule="evenodd" clip-rule="evenodd" d="M501.871 226.469L493.197 226.605V231.052L370.043 159.958C362.759 155.753 353.785 155.753 346.501 159.958L156.907 269.407V264.299H148.215V277.837C148.158 280.817 149.162 283.634 151.968 285.254L280.061 359.199C287.345 363.404 296.319 363.404 303.603 359.199L498.136 246.9C500.723 245.406 501.976 242.756 501.888 240.144L501.871 226.469Z" fill="#C4BDD6"/>
<path fill-rule="evenodd" clip-rule="evenodd" d="M346.501 145.517L151.967 257.816C146.965 260.704 146.965 267.925 151.967 270.813L280.06 344.758C287.344 348.963 296.318 348.963 303.602 344.758L498.136 232.458C503.139 229.57 503.139 222.35 498.136 219.462L370.043 145.517C362.759 141.312 353.785 141.312 346.501 145.517Z" fill="#D7D0EB"/>
<path fill-rule="evenodd" clip-rule="evenodd" d="M348.329 154.078L171.063 256.409L305.527 334.031L482.792 231.7L348.329 154.078Z" fill="#FCFBFC"/>
<path fill-rule="evenodd" clip-rule="evenodd" d="M374.951 218.183L392.901 207.82C394.629 206.824 394.629 204.331 392.901 203.334L337.08 171.11C334.733 169.755 331.841 169.755 329.494 171.11L300.654 187.759H314.014L360.063 214.342L366.718 218.183C369.265 219.654 372.403 219.654 374.951 218.183Z" fill="#D7D0EB"/>
<path fill-rule="evenodd" clip-rule="evenodd" d="M374.951 205.931L392.901 195.569C394.629 194.572 394.629 192.079 392.901 191.082L337.08 158.858C334.733 157.503 331.841 157.503 329.494 158.858L300.654 175.507H314.014L360.063 202.09L366.718 205.931C369.265 207.402 372.403 207.402 374.951 205.931Z" fill="#F9F8FA"/>
<path fill-rule="evenodd" clip-rule="evenodd" d="M344.253 171.288C344.253 175.277 338.844 178.511 332.172 178.511C325.5 178.511 320.091 175.277 320.091 171.288C320.091 167.298 325.5 164.064 332.172 164.064C338.844 164.064 344.253 167.298 344.253 171.288Z" fill="#8C2DCA"/>
<path fill-rule="evenodd" clip-rule="evenodd" d="M338.563 170.307C338.563 171.855 336.465 173.11 333.877 173.11C331.289 173.11 329.191 171.855 329.191 170.307C329.191 168.76 331.289 167.505 333.877 167.505C336.465 167.505 338.563 168.76 338.563 170.307Z" fill="#FCFBFC"/>
<path fill-rule="evenodd" clip-rule="evenodd" d="M323.961 171.133C323.256 171.133 322.576 171.191 321.924 171.292C321.924 171.318 321.918 171.344 321.918 171.371C321.918 174.668 326.331 177.344 331.818 177.414C332.033 176.975 332.154 176.512 332.154 176.032C332.154 173.326 328.486 171.133 323.961 171.133Z" fill="#FCFBFC"/>
<path fill-rule="evenodd" clip-rule="evenodd" d="M352.538 180.716C352.189 180.716 351.855 180.754 351.543 180.821C351.633 180.652 351.683 180.471 351.683 180.284C351.683 179.305 350.356 178.511 348.718 178.511C347.081 178.511 345.754 179.305 345.754 180.284V184.261H352.538C354.175 184.261 355.502 183.468 355.502 182.489C355.502 181.51 354.175 180.716 352.538 180.716Z" fill="#8C2DCA"/>
<path fill-rule="evenodd" clip-rule="evenodd" d="M362.796 186.638C362.446 186.638 362.113 186.676 361.801 186.743C361.891 186.573 361.941 186.393 361.941 186.206C361.941 185.227 360.613 184.433 358.976 184.433C357.339 184.433 356.012 185.227 356.012 186.206V190.183H362.796C364.433 190.183 365.76 189.39 365.76 188.411C365.76 187.432 364.433 186.638 362.796 186.638Z" fill="#8C2DCA"/>
<path fill-rule="evenodd" clip-rule="evenodd" d="M386.261 219.051C386.261 219.051 371.359 219.436 376.112 230.595C380.865 241.753 384.604 246.385 402.739 256.855C420.875 267.324 429.307 272.192 429.307 272.192L471.683 247.822L386.261 219.051Z" fill="#D7D0EB"/>
<path fill-rule="evenodd" clip-rule="evenodd" d="M498.747 392.798L480.195 388.459C473.258 386.837 466.902 378.731 473.188 367.525C475.033 364.236 480.171 364.275 486.901 367.382L509.817 387.755C509.369 388.478 508.888 395.64 498.747 392.798Z" fill="#3F07A8"/>
<mask id="mask1" mask-type="alpha" maskUnits="userSpaceOnUse" x="470" y="362" width="41" height="30">
<path fill-rule="evenodd" clip-rule="evenodd" d="M470.997 362.123H510.328V391.254H470.997V362.123Z" fill="white"/>
</mask>
<g mask="url(#mask1)">
<path fill-rule="evenodd" clip-rule="evenodd" d="M499.037 390.762L480.484 386.423C473.548 384.801 469.441 377.613 471.552 370.788C473.749 363.689 481.668 360.147 488.398 363.255C488.398 363.255 500.559 371.46 504.238 374.669C514.465 383.591 511.192 393.604 499.037 390.762Z" fill="white"/>
</g>
<path fill-rule="evenodd" clip-rule="evenodd" d="M483.294 378.495C479.256 378.495 475.982 375.221 475.982 371.184V348.825C475.982 344.788 479.256 341.514 483.294 341.514C487.332 341.514 490.606 344.788 490.606 348.825V371.184C490.606 375.221 487.332 378.495 483.294 378.495Z" fill="#3F07A8"/>
<path fill-rule="evenodd" clip-rule="evenodd" d="M482.544 289.043C480.873 299.157 476.659 312.771 466.05 317.215C469.292 329.844 470.946 344.044 470.946 359.747C470.946 366.566 476.474 372.094 483.294 372.094C490.114 372.094 495.642 366.566 495.642 359.747C495.642 332.469 491.247 308.808 482.544 289.043Z" fill="#A89EF0"/>
<path fill-rule="evenodd" clip-rule="evenodd" d="M482.544 289.043C478.535 279.938 473.614 271.659 467.784 264.238C464.747 260.371 471.173 270.062 467.686 266.702C467.204 271.072 458.072 269.768 445.518 276.288C456.644 287.665 461.386 299.046 466.05 317.215C476.659 312.771 480.873 299.157 482.544 289.043Z" fill="#3F07A8"/>
<path fill-rule="evenodd" clip-rule="evenodd" d="M482.544 289.043C477.352 287.961 468.593 287.961 466.05 317.215C469.292 329.844 470.946 344.044 470.946 359.747C470.946 366.566 476.474 372.094 483.294 372.094C490.114 372.094 495.642 366.566 495.642 359.747C495.642 332.469 491.247 308.808 482.544 289.043Z" fill="#535FE9"/>
<path fill-rule="evenodd" clip-rule="evenodd" d="M416.56 228.628C404.568 224.6 402.451 218.096 402.078 215.985C402.166 215.502 402.227 215.008 402.257 214.506C402.672 207.699 397.491 201.845 390.684 201.43C384.369 201.045 378.864 205.406 377.618 211.803C375.839 220.927 381.095 242.767 408.697 252.037C421.96 256.491 438.119 269.976 447.229 279.292C459.784 272.773 465.446 265.622 465.928 261.251C450.203 242.833 432.633 234.025 416.56 228.628Z" fill="#535FE9"/>
<path fill-rule="evenodd" clip-rule="evenodd" d="M416.329 155.486C412.968 135.961 361.825 138.937 361.825 169.229C361.825 169.229 377.342 227.787 414.402 226.047C416.725 224.393 418.129 222.628 418.129 220.883C418.129 210.614 419.341 172.986 416.329 155.486Z" fill="#75D2FF"/>
<path fill-rule="evenodd" clip-rule="evenodd" d="M428.849 311.158C424.627 311.158 420.516 308.993 418.21 305.097C414.737 299.228 416.679 291.656 422.549 288.183C440.409 277.617 453.964 268.555 462.839 261.251C468.633 256.483 471.453 253.276 472.81 251.392C471.403 250.715 469.118 249.814 465.48 248.79C459.451 247.093 451.939 245.666 443.987 244.156C434.579 242.368 424.849 240.52 415.786 237.914C409.231 236.028 405.447 229.188 407.331 222.634C409.217 216.081 416.06 212.296 422.612 214.182C430.58 216.474 439.739 218.213 448.596 219.896C459.132 221.897 469.084 223.787 477.187 226.577C481.842 228.18 496.011 233.059 498.353 246.443C501.312 263.343 484.175 280.415 435.126 309.435C433.153 310.602 430.986 311.158 428.849 311.158Z" fill="#535FE9"/>
<path fill-rule="evenodd" clip-rule="evenodd" d="M456.079 203.468C454.735 203.468 453.37 203.171 452.08 202.542C449.793 201.426 447.67 200.395 445.697 199.437C418.463 186.206 417.278 185.354 403.419 169.047C401.136 166.362 398.55 163.319 395.344 159.64C392.027 155.834 392.424 150.061 396.23 146.745C400.036 143.429 405.81 143.826 409.127 147.631C412.407 151.396 415.034 154.485 417.349 157.21C429.121 171.061 429.121 171.061 453.686 182.996C455.667 183.958 457.796 184.992 460.092 186.112C464.63 188.323 466.515 193.795 464.302 198.332C462.719 201.58 459.465 203.468 456.079 203.468Z" fill="#75D2FF"/>
<path fill-rule="evenodd" clip-rule="evenodd" d="M361.825 169.228C361.825 174.715 363.971 198.496 369.743 226.997C371.431 235.329 385.07 235.747 398.471 232.507C400.324 232.06 414.25 226.882 415.645 225.915C421.942 221.55 416.808 207.001 418.305 205.934C416.99 205.713 394.796 217.4 380.799 179.334C376.164 166.73 361.825 169.228 361.825 169.228Z" fill="#0099F7"/>
<path fill-rule="evenodd" clip-rule="evenodd" d="M372.86 149.28C372.86 149.28 375.445 138.29 378.362 136.971L380.47 141.524L386.133 145.287L395.541 147.462L403.95 147.227L407.549 145.119C407.817 148.438 408.463 157.371 402.235 159.192C393.659 161.7 385.843 146.601 372.86 149.28Z" fill="#535FE9"/>
<path fill-rule="evenodd" clip-rule="evenodd" d="M476.102 215.971C474.859 215.889 473.621 215.479 472.525 214.715L454.173 201.928C450.964 199.693 450.175 195.28 452.41 192.072C454.647 188.864 459.062 188.075 462.268 190.31L480.621 203.096C483.829 205.332 484.618 209.744 482.383 212.953C480.911 215.065 478.496 216.128 476.102 215.971Z" fill="#FEA16E"/>
<path fill-rule="evenodd" clip-rule="evenodd" d="M417.753 313.531C415.475 313.531 413.231 312.47 411.803 310.478C409.451 307.195 410.206 302.627 413.488 300.276L421.19 294.759C424.473 292.407 429.041 293.161 431.393 296.444C433.745 299.726 432.991 304.295 429.708 306.646L422.007 312.163C420.716 313.087 419.228 313.531 417.753 313.531Z" fill="#3F07A8"/>
<path fill-rule="evenodd" clip-rule="evenodd" d="M401.595 148.205C408.239 147.784 409.515 144.642 404.446 141.186C399.377 137.73 389.882 135.27 383.239 135.692C379.925 135.901 377.947 136.788 377.425 138.053C376.9 139.325 377.846 140.978 380.388 142.711C385.457 146.166 394.952 148.626 401.595 148.205Z" fill="#0099F7"/>
<path fill-rule="evenodd" clip-rule="evenodd" d="M399.664 146.888C404.909 146.556 405.917 144.075 401.914 141.346C397.913 138.618 390.415 136.676 385.17 137.008C379.925 137.34 378.916 139.822 382.919 142.55C386.921 145.279 394.419 147.221 399.664 146.888Z" fill="#3F07A8"/>
<path fill-rule="evenodd" clip-rule="evenodd" d="M383.766 143.147L390.782 121.907C392.004 118.208 395.995 116.202 399.696 117.421C403.396 118.643 405.404 122.633 404.182 126.334L397.38 146.925C392.417 146.916 387 144.904 383.766 143.147Z" fill="#FEA16E"/>
<path fill-rule="evenodd" clip-rule="evenodd" d="M404.572 139.241C414.438 135.723 419.594 124.847 416.088 114.948C412.582 105.049 401.742 99.876 391.875 103.394C382.009 106.912 376.853 117.788 380.359 127.687C383.866 137.586 394.706 142.759 404.572 139.241Z" fill="#FFCDA7"/>
<path fill-rule="evenodd" clip-rule="evenodd" d="M395.09 121.079C408.524 139.702 428.546 125.679 422.215 114.61C416.814 105.167 411.126 95.7953 391.705 100.109C391.705 100.109 389.865 96.6887 387.917 97.0852C387.917 97.0852 388.075 101.61 386.494 102.505C385.145 103.267 368.614 118.854 384.242 134.172C384.242 134.172 380.722 125.446 387.917 125.31C392.107 125.23 395.09 121.079 395.09 121.079Z" fill="#3F07A8"/>
<path fill-rule="evenodd" clip-rule="evenodd" d="M380.867 125.468C381.276 127.816 383.423 130.385 385.661 131.204C387.9 132.024 389.383 130.785 388.974 128.436C388.565 126.088 386.418 123.52 384.18 122.7C381.941 121.881 380.458 123.119 380.867 125.468Z" fill="#FFCDA7"/>
<path fill-rule="evenodd" clip-rule="evenodd" d="M448.479 245.083L431.47 231.128C431.47 231.128 432.103 226.415 429.161 222.549C419.859 210.331 413.944 212.257 436.816 217.172L448.073 219.789C448.073 219.789 449.426 244.11 466.444 249.067L448.479 245.083Z" fill="#3F07A8"/>
<path fill-rule="evenodd" clip-rule="evenodd" d="M483.113 211.373L483.094 211.637C482.953 211.531 482.789 211.448 482.603 211.4L452.376 203.5C451.276 203.213 450.106 203.534 449.307 204.343L436.209 217.601L436.203 217.555L435.084 217.791L435.549 219.481C435.7 220.035 436.126 220.513 436.761 220.678L466.605 228.479C467.637 228.748 468.735 228.447 469.484 227.688L483.249 213.755C483.603 213.397 483.713 212.924 483.627 212.492L483.629 212.49L483.618 212.449C483.609 212.412 483.599 212.376 483.589 212.339L483.141 210.7L483.113 211.373Z" fill="#D7D0EB"/>
<path fill-rule="evenodd" clip-rule="evenodd" d="M482.139 209.709L451.912 201.81C450.812 201.522 449.642 201.844 448.843 202.652L435.515 216.144C435.054 216.609 434.932 217.238 435.084 217.791C435.236 218.344 435.662 218.822 436.296 218.988L466.005 226.752C467.121 227.044 468.308 226.718 469.118 225.898L482.785 212.063C483.547 211.291 483.189 209.984 482.139 209.709Z" fill="white"/>
<path fill-rule="evenodd" clip-rule="evenodd" d="M482.051 210.668L466.931 225.76L438.351 218.291L453.471 203.198L482.051 210.668Z" fill="#3F07A8"/>
<path fill-rule="evenodd" clip-rule="evenodd" d="M446.087 209.009C446.19 209.382 445.699 209.843 444.99 210.037C444.281 210.232 443.624 210.087 443.521 209.713C443.419 209.34 443.91 208.879 444.619 208.684C445.327 208.49 445.985 208.635 446.087 209.009Z" fill="#3F07A8"/>
<path fill-rule="evenodd" clip-rule="evenodd" d="M411.165 226.517C408.399 226.517 405.772 224.887 404.633 222.178C403.118 218.573 404.814 214.423 408.419 212.908L432.955 202.601C436.563 201.086 440.712 202.781 442.226 206.386C443.741 209.99 442.046 214.141 438.44 215.655L413.904 225.963C413.008 226.339 412.079 226.517 411.165 226.517Z" fill="#FEA16E"/>
<path fill-rule="evenodd" clip-rule="evenodd" d="M403.707 227.672C397.153 227.672 391.213 226.071 385.93 222.868C368.269 212.163 363.967 187.125 362.267 169.223C361.79 164.198 365.477 159.737 370.503 159.26C375.539 158.781 379.99 162.47 380.466 167.494C382.518 189.1 387.545 202.472 395.407 207.238C400.645 210.413 408.164 210.044 417.757 206.146C422.434 204.246 427.767 206.495 429.667 211.171C431.568 215.847 429.318 221.179 424.641 223.08C417.108 226.141 410.114 227.672 403.707 227.672Z" fill="#75D2FF"/>
<path fill-rule="evenodd" clip-rule="evenodd" d="M466.39 210.591L462.197 200.922L466.124 199.22L470.317 208.889C470.787 209.973 470.289 211.233 469.205 211.703C468.121 212.173 466.86 211.676 466.39 210.591Z" fill="#FEA16E"/>
<path fill-rule="evenodd" clip-rule="evenodd" d="M420.423 333.39L407.051 322.88C400.733 319.627 393.62 310.018 397.311 303.929C401.15 297.594 410.613 294.169 416.372 298.809L431.606 316.003C436.472 327.237 431.448 339.068 420.423 333.39Z" fill="white"/>
<path fill-rule="evenodd" clip-rule="evenodd" d="M420.113 333.976L402.621 324.968C396.189 321.656 394.095 305.752 394.095 305.752C395.004 304.918 400.803 297.445 409.436 305.017L424.814 317.407C434.646 325.328 431.339 339.757 420.113 333.976Z" fill="#3F07A8"/>
<path fill-rule="evenodd" clip-rule="evenodd" d="M417.852 336.209L400.359 327.202C393.927 323.889 390.844 317.465 392.448 308.802C393.491 303.174 401.311 302.525 407.175 307.249L422.553 319.639C432.385 327.561 429.077 341.99 417.852 336.209Z" fill="#535FE9"/>
<path fill-rule="evenodd" clip-rule="evenodd" d="M498.55 59.8648L416.799 12.6726C413.868 10.9802 410.204 13.0954 410.204 16.4791V59.7327V85.584L423.518 72.2719L497.565 115.017C500.496 116.709 504.16 114.594 504.16 111.21V69.5801C504.16 65.5721 502.021 61.8689 498.55 59.8648Z" fill="#0099F7"/>
<path fill-rule="evenodd" clip-rule="evenodd" d="M425.254 54.8037L452.649 70.6181C453.861 71.318 454.607 72.6106 454.607 74.0091C454.607 74.9282 453.612 75.5027 452.816 75.0435L425.421 59.2285C424.209 58.5293 423.463 57.2366 423.463 55.8381C423.463 54.9184 424.458 54.3439 425.254 54.8037Z" fill="#FCFBFC"/>
<path fill-rule="evenodd" clip-rule="evenodd" d="M425.254 43.177L471.167 69.6817C472.379 70.381 473.125 71.6736 473.125 73.0721C473.125 73.9918 472.13 74.5663 471.334 74.1065L425.421 47.6018C424.209 46.9025 423.463 45.6099 423.463 44.2114C423.463 43.2917 424.458 42.7172 425.254 43.177Z" fill="#FCFBFC"/>
<path fill-rule="evenodd" clip-rule="evenodd" d="M422.687 32.1367C422.687 31.2176 423.682 30.6431 424.478 31.1023L476.454 61.1066C477.666 61.8059 478.412 63.0985 478.412 64.4977C478.412 65.4167 477.417 65.9912 476.62 65.5314L424.645 35.5271C423.434 34.8278 422.687 33.5352 422.687 32.1367Z" fill="#FCFBFC"/>
<path opacity="0.297837" fill-rule="evenodd" clip-rule="evenodd" d="M36.7131 208.181L1.32669 228.609C-0.442229 229.63 -0.442229 232.184 1.32669 233.205L36.7131 253.633C39.441 255.208 42.8022 255.208 45.5307 253.633L80.9165 233.205C82.6861 232.184 82.6861 229.63 80.9165 228.609L45.5307 208.181C42.8022 206.606 39.441 206.606 36.7131 208.181Z" fill="#D7D0EB"/>
<path fill-rule="evenodd" clip-rule="evenodd" d="M36.7131 187.181L1.32669 207.609C-0.442229 208.63 -0.442229 211.184 1.32669 212.205L36.7131 232.633C39.441 234.208 42.8022 234.208 45.5307 232.633L80.9165 212.205C82.6861 211.184 82.6861 208.63 80.9165 207.609L45.5307 187.181C42.8022 185.606 39.441 185.606 36.7131 187.181Z" fill="#4D81DE"/>
<path fill-rule="evenodd" clip-rule="evenodd" d="M370.65 85.4135L343.922 122.447L318.607 106.036L345.335 69.0024L370.65 85.4135Z" fill="#D087FF"/>
<path fill-rule="evenodd" clip-rule="evenodd" d="M318.607 106.036L345.185 98.481L345.335 69.002L318.607 106.036Z" fill="#AD70D4"/>
<mask id="mask2" mask-type="alpha" maskUnits="userSpaceOnUse" x="180" y="0" width="53" height="46">
<path fill-rule="evenodd" clip-rule="evenodd" d="M180.174 0.302734H232.414V45.9H180.174V0.302734Z" fill="white"/>
</mask>
<g mask="url(#mask2)">
<path fill-rule="evenodd" clip-rule="evenodd" d="M222.528 45.9001L180.174 28.8032L190.06 0.302612L232.414 17.3995L222.528 45.9001Z" fill="#0099F7"/>
</g>
<path fill-rule="evenodd" clip-rule="evenodd" d="M190.06 0.302734L203.75 24.3004L232.414 17.3996L190.06 0.302734Z" fill="#535FE9"/>
<path fill-rule="evenodd" clip-rule="evenodd" d="M53.274 102.056L135.025 54.8638C137.955 53.1713 141.619 55.2866 141.619 58.6702V101.924V127.775L128.305 114.463L54.2586 157.208C51.3277 158.9 47.6638 156.785 47.6638 153.401V111.771C47.6638 107.763 49.8022 104.06 53.274 102.056Z" fill="#D087FF"/>
<path fill-rule="evenodd" clip-rule="evenodd" d="M86.4751 120.141L59.0794 135.955C57.8683 136.655 57.1217 137.948 57.1217 139.346C57.1217 140.265 58.1171 140.84 58.9129 140.38L86.3085 124.565C87.5204 123.866 88.2662 122.574 88.2662 121.175C88.2662 120.255 87.2715 119.681 86.4751 120.141Z" fill="#FCFBFC"/>
<path fill-rule="evenodd" clip-rule="evenodd" d="M104.993 97.824L59.0801 124.329C57.8682 125.028 57.1216 126.321 57.1216 127.719C57.1216 128.639 58.117 129.213 58.9135 128.753L104.826 102.249C106.038 101.55 106.784 100.257 106.784 98.8584C106.784 97.9386 105.789 97.3641 104.993 97.824Z" fill="#FCFBFC"/>
<path fill-rule="evenodd" clip-rule="evenodd" d="M112.847 83.7318C112.847 82.8127 111.851 82.2382 111.055 82.6974L59.0798 112.702C57.8679 113.401 57.1221 114.694 57.1221 116.093C57.1221 117.012 58.1168 117.586 58.9132 117.126L110.889 87.1222C112.1 86.4229 112.847 85.1303 112.847 83.7318Z" fill="#FCFBFC"/>
<path fill-rule="evenodd" clip-rule="evenodd" d="M338.136 268.319L372.131 248.694C373.858 247.697 373.858 245.205 372.131 244.208L291.292 197.541C288.945 196.187 286.054 196.187 283.707 197.541L238.822 223.453H252.181L298.231 250.036L329.903 268.319C332.45 269.79 335.588 269.79 338.136 268.319Z" fill="#D7D0EB"/>
<path fill-rule="evenodd" clip-rule="evenodd" d="M338.136 256.068L372.131 236.443C373.858 235.445 373.858 232.953 372.131 231.957L291.292 185.29C288.945 183.935 286.054 183.935 283.707 185.29L238.822 211.201H252.181L298.231 237.785L329.903 256.068C332.45 257.538 335.588 257.538 338.136 256.068Z" fill="#F9F8FA"/>
<path fill-rule="evenodd" clip-rule="evenodd" d="M294.463 208.689L290.643 210.895L345.689 242.671L349.509 240.466L294.463 208.689Z" fill="#D7D0EB"/>
<path fill-rule="evenodd" clip-rule="evenodd" d="M301.142 204.834L297.321 207.039L352.367 238.816L356.188 236.611L301.142 204.834Z" fill="#D7D0EB"/>
<path fill-rule="evenodd" clip-rule="evenodd" d="M287.77 212.553L283.949 214.758L338.996 246.535L342.816 244.33L287.77 212.553Z" fill="#D7D0EB"/>
<path fill-rule="evenodd" clip-rule="evenodd" d="M307.835 200.97L304.014 203.175L359.06 234.952L362.881 232.747L307.835 200.97Z" fill="#D7D0EB"/>
<path fill-rule="evenodd" clip-rule="evenodd" d="M281.077 216.417L277.256 218.622L292.501 227.422L296.322 225.217L281.077 216.417Z" fill="#D7D0EB"/>
<path fill-rule="evenodd" clip-rule="evenodd" d="M298.466 197.72C298.466 201.709 293.057 204.943 286.385 204.943C279.713 204.943 274.304 201.709 274.304 197.72C274.304 193.73 279.713 190.496 286.385 190.496C293.057 190.496 298.466 193.73 298.466 197.72Z" fill="#8C2DCA"/>
<path fill-rule="evenodd" clip-rule="evenodd" d="M292.776 196.739C292.776 198.287 290.678 199.542 288.089 199.542C285.502 199.542 283.404 198.287 283.404 196.739C283.404 195.192 285.502 193.937 288.089 193.937C290.678 193.937 292.776 195.192 292.776 196.739Z" fill="#FCFBFC"/>
<path fill-rule="evenodd" clip-rule="evenodd" d="M278.174 197.564C277.469 197.564 276.789 197.623 276.137 197.724C276.136 197.75 276.13 197.776 276.13 197.802C276.13 201.1 280.544 203.776 286.03 203.846C286.246 203.407 286.367 202.944 286.367 202.464C286.367 199.758 282.699 197.564 278.174 197.564Z" fill="#FCFBFC"/>
<path fill-rule="evenodd" clip-rule="evenodd" d="M328.635 315.876L360.233 297.635C361.96 296.639 361.96 294.146 360.233 293.149L279.394 246.483C277.047 245.128 274.155 245.128 271.808 246.483L250.012 259.065C248.285 260.062 248.285 262.555 250.012 263.552L328.635 308.939V315.876Z" fill="#D7D0EB"/>
<path fill-rule="evenodd" clip-rule="evenodd" d="M328.635 303.624L360.233 285.384C361.96 284.387 361.96 281.894 360.233 280.897L279.394 234.231C277.047 232.876 274.155 232.876 271.808 234.231L250.012 246.814C248.285 247.81 248.285 250.303 250.012 251.3L328.635 296.688V303.624Z" fill="#F9F8FA"/>
<path fill-rule="evenodd" clip-rule="evenodd" d="M275.004 238.807L271.184 241.013L325.674 272.469L329.494 270.263L275.004 238.807Z" fill="#D7D0EB"/>
<path fill-rule="evenodd" clip-rule="evenodd" d="M268.311 242.671L264.491 244.877L318.981 276.332L322.801 274.127L268.311 242.671Z" fill="#D7D0EB"/>
<path fill-rule="evenodd" clip-rule="evenodd" d="M261.618 246.535L257.798 248.741L287.623 265.957L291.443 263.752L261.618 246.535Z" fill="#D7D0EB"/>
<path fill-rule="evenodd" clip-rule="evenodd" d="M347.827 284.132C347.827 288.122 342.418 291.355 335.746 291.355C329.074 291.355 323.665 288.122 323.665 284.132C323.665 280.142 329.074 276.908 335.746 276.908C342.418 276.908 347.827 280.142 347.827 284.132Z" fill="#0099F7"/>
<path fill-rule="evenodd" clip-rule="evenodd" d="M342.137 283.152C342.137 284.699 340.039 285.954 337.45 285.954C334.863 285.954 332.765 284.699 332.765 283.152C332.765 281.604 334.863 280.349 337.45 280.349C340.039 280.349 342.137 281.604 342.137 283.152Z" fill="#FCFBFC"/>
<path fill-rule="evenodd" clip-rule="evenodd" d="M327.534 283.977C326.83 283.977 326.15 284.035 325.498 284.136C325.497 284.162 325.491 284.188 325.491 284.215C325.491 287.512 329.905 290.188 335.391 290.258C335.607 289.819 335.728 289.356 335.728 288.876C335.728 286.17 332.06 283.977 327.534 283.977Z" fill="#FCFBFC"/>
<path fill-rule="evenodd" clip-rule="evenodd" d="M93.286 284.026L110.115 292.958C116.407 296.298 124.229 293.584 127.128 287.054C130.143 280.263 126.508 272.388 119.394 270.303C119.394 270.303 104.836 268.485 99.9543 268.483C86.3809 268.479 82.2604 278.174 93.286 284.026Z" fill="#5486E0"/>
<path fill-rule="evenodd" clip-rule="evenodd" d="M93.1751 280.911L110.004 289.844C116.296 293.184 124.118 290.47 127.017 283.94C130.032 277.148 126.397 269.273 119.283 267.188C119.283 267.188 104.725 265.371 99.8434 265.369C86.27 265.364 82.1495 275.059 93.1751 280.911Z" fill="white"/>
<path fill-rule="evenodd" clip-rule="evenodd" d="M112.198 283.908C109.306 281.848 108.066 278.02 109.415 274.563L118.843 250.407C120.436 246.324 125.038 244.306 129.12 245.9C133.204 247.493 135.221 252.093 133.628 256.176L124.2 280.332C122.607 284.414 118.006 286.432 113.923 284.838C113.298 284.595 112.721 284.28 112.198 283.908Z" fill="#FFB67C"/>
<path fill-rule="evenodd" clip-rule="evenodd" d="M123.318 262.196L122.226 261.761C115.723 259.165 112.556 251.789 115.152 245.286L118.863 235.99C120.739 231.294 126.066 229.007 130.762 230.882L138.397 233.93C143.094 235.804 145.381 241.131 143.507 245.827L139.795 255.123C137.198 261.625 129.821 264.793 123.318 262.196Z" fill="#0099F7"/>
<path fill-rule="evenodd" clip-rule="evenodd" d="M121.608 240.143C121.564 241.06 121.648 241.969 121.852 242.847C121.648 241.886 121.574 240.988 121.608 240.143Z" fill="#434785"/>
<path fill-rule="evenodd" clip-rule="evenodd" d="M184.159 225.678C183.69 225.31 183.216 224.937 182.739 224.561C174.046 217.708 159.723 203.003 145.183 207.051C141.242 208.148 132.691 209.992 122.261 237.049C122.182 237.256 122.111 237.463 122.047 237.671L144.42 235.374L144.398 235.426C147.077 229.843 150.368 227.982 153.176 228.108C158.798 228.361 164.197 235.204 170.456 240.137C170.95 240.527 171.44 240.914 171.926 241.295C176.24 244.674 182.475 243.914 185.852 239.601C189.23 235.289 188.472 229.055 184.159 225.678Z" fill="#535FE9"/>
<path fill-rule="evenodd" clip-rule="evenodd" d="M121.852 242.847C122.391 245.171 123.757 247.27 125.755 248.692C126.419 249.165 127.153 249.564 127.949 249.871C133.061 251.84 138.802 249.294 140.772 244.183C141.372 242.627 141.964 241.148 142.548 239.734L142.531 239.775C134.682 239.485 127.512 240.128 121.852 242.847Z" fill="#535FE9"/>
<path fill-rule="evenodd" clip-rule="evenodd" d="M122.047 237.671V237.672C122.002 237.809 121.964 237.948 121.927 238.088C121.839 238.418 121.767 238.748 121.715 239.079C121.713 239.095 121.711 239.112 121.708 239.128C121.681 239.304 121.661 239.48 121.643 239.656C121.632 239.78 121.62 239.904 121.614 240.031C121.612 240.068 121.61 240.106 121.608 240.143C121.574 240.989 121.648 241.886 121.852 242.846V242.847C127.512 240.128 134.682 239.485 142.531 239.775L142.549 239.733C143.174 238.22 143.791 236.785 144.398 235.426L144.421 235.374L122.047 237.671Z" fill="#434785"/>
<path fill-rule="evenodd" clip-rule="evenodd" d="M122.047 237.671V237.672C122.002 237.809 121.964 237.948 121.927 238.088C121.839 238.418 121.767 238.748 121.715 239.079C121.713 239.095 121.711 239.112 121.708 239.128C121.681 239.304 121.661 239.48 121.643 239.656C121.632 239.78 121.62 239.904 121.614 240.031C121.612 240.068 121.61 240.106 121.608 240.143C121.574 240.989 121.648 241.886 121.852 242.846V242.847C127.512 240.128 134.682 239.485 142.531 239.775L142.549 239.733C143.174 238.22 143.791 236.785 144.398 235.426L144.421 235.374L122.047 237.671Z" fill="#535FE9"/>
<path fill-rule="evenodd" clip-rule="evenodd" d="M166.099 249.659C166.099 249.659 189.278 270.693 218.052 267.546C247.865 264.285 259.45 241.365 245.439 234.956C233.494 229.492 213.131 222.508 213.131 222.508L166.099 249.659Z" fill="#D7D0EB"/>
<path fill-rule="evenodd" clip-rule="evenodd" d="M126.437 200.693L175.437 172.406C177.22 171.377 179.417 171.377 181.2 172.406L211.91 190.134C213.538 191.074 213.538 193.423 211.91 194.363L164.055 221.988C161.46 223.487 158.263 223.487 155.668 221.988L126.437 205.114C124.735 204.132 124.735 201.675 126.437 200.693Z" fill="#0099F7"/>
<path fill-rule="evenodd" clip-rule="evenodd" d="M126.437 198.419L175.437 170.132C177.22 169.103 179.417 169.103 181.2 170.132L211.91 187.861C213.538 188.8 213.538 191.149 211.91 192.089L164.055 219.715C161.46 221.213 158.263 221.213 155.668 219.715L126.437 202.84C124.735 201.858 124.735 199.402 126.437 198.419Z" fill="#75D2FF"/>
<path fill-rule="evenodd" clip-rule="evenodd" d="M116.003 157.948L166.21 128.964C167.498 128.221 169.138 128.932 169.476 130.381L177.589 165.17C178.043 167.117 177.169 169.132 175.437 170.132L125.23 199.116C123.942 199.859 122.302 199.148 121.964 197.7L113.851 162.911C113.397 160.963 114.271 158.948 116.003 157.948Z" fill="#0099F7"/>
<path fill-rule="evenodd" clip-rule="evenodd" d="M117.645 160.081L166.378 131.949L174.736 167.794L126.004 195.926L117.645 160.081Z" fill="white"/>
<path fill-rule="evenodd" clip-rule="evenodd" d="M166.641 203.182L174.907 207.954C175.833 208.488 176.973 208.488 177.899 207.954L190.392 200.743C191.115 200.325 191.115 199.282 190.392 198.865L182.126 194.093C181.2 193.559 180.059 193.559 179.133 194.093L166.641 201.305C165.918 201.722 165.918 202.765 166.641 203.182Z" fill="#535FE9"/>
<path fill-rule="evenodd" clip-rule="evenodd" d="M189.542 181.551L192.346 183.17L196.19 180.95L193.386 179.331L189.542 181.551Z" fill="#535FE9"/>
<path fill-rule="evenodd" clip-rule="evenodd" d="M184.821 184.276L187.625 185.895L191.47 183.676L188.666 182.057L184.821 184.276Z" fill="#535FE9"/>
<path fill-rule="evenodd" clip-rule="evenodd" d="M161.748 197.595L164.552 199.214L186.749 186.401L183.945 184.782L161.748 197.595Z" fill="#535FE9"/>
<path fill-rule="evenodd" clip-rule="evenodd" d="M156.498 200.627L159.302 202.246L163.147 200.026L160.342 198.407L156.498 200.627Z" fill="#535FE9"/>
<path fill-rule="evenodd" clip-rule="evenodd" d="M151.777 203.352L154.581 204.97L158.426 202.751L155.622 201.132L151.777 203.352Z" fill="#535FE9"/>
<path fill-rule="evenodd" clip-rule="evenodd" d="M147.057 206.077L149.861 207.696L153.705 205.476L150.901 203.857L147.057 206.077Z" fill="#535FE9"/>
<path fill-rule="evenodd" clip-rule="evenodd" d="M142.148 208.91L144.952 210.529L148.985 208.201L146.181 206.582L142.148 208.91Z" fill="#535FE9"/>
<path fill-rule="evenodd" clip-rule="evenodd" d="M185.351 179.132L188.155 180.751L192 178.531L189.196 176.912L185.351 179.132Z" fill="#535FE9"/>
<path fill-rule="evenodd" clip-rule="evenodd" d="M180.63 181.857L183.435 183.476L187.279 181.256L184.475 179.637L180.63 181.857Z" fill="#535FE9"/>
<path fill-rule="evenodd" clip-rule="evenodd" d="M175.91 184.582L178.714 186.201L182.559 183.981L179.755 182.362L175.91 184.582Z" fill="#535FE9"/>
<path fill-rule="evenodd" clip-rule="evenodd" d="M171.189 187.307L173.994 188.926L177.838 186.706L175.034 185.087L171.189 187.307Z" fill="#535FE9"/>
<path fill-rule="evenodd" clip-rule="evenodd" d="M166.469 190.032L169.273 191.651L173.118 189.432L170.314 187.813L166.469 190.032Z" fill="#535FE9"/>
<path fill-rule="evenodd" clip-rule="evenodd" d="M161.748 192.757L164.552 194.376L168.397 192.157L165.593 190.538L161.748 192.757Z" fill="#535FE9"/>
<path fill-rule="evenodd" clip-rule="evenodd" d="M157.028 195.482L159.832 197.101L163.677 194.882L160.873 193.263L157.028 195.482Z" fill="#535FE9"/>
<path fill-rule="evenodd" clip-rule="evenodd" d="M152.307 198.207L155.111 199.826L158.956 197.607L156.152 195.988L152.307 198.207Z" fill="#535FE9"/>
<path fill-rule="evenodd" clip-rule="evenodd" d="M147.587 200.933L150.391 202.552L154.236 200.332L151.431 198.713L147.587 200.933Z" fill="#535FE9"/>
<path fill-rule="evenodd" clip-rule="evenodd" d="M142.866 203.658L145.67 205.277L149.515 203.057L146.711 201.438L142.866 203.658Z" fill="#535FE9"/>
<path fill-rule="evenodd" clip-rule="evenodd" d="M137.958 206.491L140.762 208.11L144.795 205.782L141.991 204.163L137.958 206.491Z" fill="#535FE9"/>
<path fill-rule="evenodd" clip-rule="evenodd" d="M181.161 176.713L183.965 178.332L187.809 176.112L185.005 174.493L181.161 176.713Z" fill="#535FE9"/>
<path fill-rule="evenodd" clip-rule="evenodd" d="M176.44 179.438L179.244 181.057L183.089 178.837L180.285 177.219L176.44 179.438Z" fill="#535FE9"/>
<path fill-rule="evenodd" clip-rule="evenodd" d="M171.72 182.163L174.524 183.782L178.368 181.562L175.564 179.943L171.72 182.163Z" fill="#535FE9"/>
<path fill-rule="evenodd" clip-rule="evenodd" d="M166.999 184.888L169.803 186.507L173.648 184.287L170.844 182.668L166.999 184.888Z" fill="#535FE9"/>
<path fill-rule="evenodd" clip-rule="evenodd" d="M162.279 187.613L165.083 189.232L168.927 187.013L166.123 185.394L162.279 187.613Z" fill="#535FE9"/>
<path fill-rule="evenodd" clip-rule="evenodd" d="M157.558 190.338L160.362 191.957L164.207 189.738L161.403 188.119L157.558 190.338Z" fill="#535FE9"/>
<path fill-rule="evenodd" clip-rule="evenodd" d="M152.837 193.063L155.642 194.682L159.486 192.463L156.682 190.844L152.837 193.063Z" fill="#535FE9"/>
<path fill-rule="evenodd" clip-rule="evenodd" d="M148.117 195.789L150.921 197.408L154.766 195.188L151.962 193.569L148.117 195.789Z" fill="#535FE9"/>
<path fill-rule="evenodd" clip-rule="evenodd" d="M143.396 198.513L146.2 200.132L150.045 197.913L147.241 196.294L143.396 198.513Z" fill="#535FE9"/>
<path fill-rule="evenodd" clip-rule="evenodd" d="M138.676 201.239L141.48 202.858L145.325 200.638L142.521 199.019L138.676 201.239Z" fill="#535FE9"/>
<path fill-rule="evenodd" clip-rule="evenodd" d="M133.767 204.072L136.571 205.691L140.604 203.363L137.8 201.744L133.767 204.072Z" fill="#535FE9"/>
<path fill-rule="evenodd" clip-rule="evenodd" d="M176.97 174.294L179.774 175.913L183.619 173.693L180.815 172.074L176.97 174.294Z" fill="#535FE9"/>
<path fill-rule="evenodd" clip-rule="evenodd" d="M172.25 177.019L175.054 178.638L178.898 176.418L176.094 174.799L172.25 177.019Z" fill="#535FE9"/>
<path fill-rule="evenodd" clip-rule="evenodd" d="M167.529 179.744L170.333 181.363L174.178 179.143L171.374 177.524L167.529 179.744Z" fill="#535FE9"/>
<path fill-rule="evenodd" clip-rule="evenodd" d="M162.809 182.469L165.613 184.088L169.457 181.868L166.653 180.249L162.809 182.469Z" fill="#535FE9"/>
<path fill-rule="evenodd" clip-rule="evenodd" d="M158.088 185.194L160.892 186.813L164.737 184.594L161.933 182.975L158.088 185.194Z" fill="#535FE9"/>
<path fill-rule="evenodd" clip-rule="evenodd" d="M153.368 187.919L156.172 189.538L160.016 187.319L157.212 185.7L153.368 187.919Z" fill="#535FE9"/>
<path fill-rule="evenodd" clip-rule="evenodd" d="M148.647 190.644L151.451 192.263L155.296 190.044L152.492 188.425L148.647 190.644Z" fill="#535FE9"/>
<path fill-rule="evenodd" clip-rule="evenodd" d="M143.927 193.369L146.731 194.988L150.575 192.769L147.771 191.15L143.927 193.369Z" fill="#535FE9"/>
<path fill-rule="evenodd" clip-rule="evenodd" d="M139.206 196.095L142.01 197.714L145.855 195.494L143.051 193.875L139.206 196.095Z" fill="#535FE9"/>
<path fill-rule="evenodd" clip-rule="evenodd" d="M134.485 198.82L137.29 200.439L141.134 198.219L138.33 196.6L134.485 198.82Z" fill="#535FE9"/>
<path fill-rule="evenodd" clip-rule="evenodd" d="M129.577 201.653L132.381 203.272L136.414 200.944L133.61 199.325L129.577 201.653Z" fill="#535FE9"/>
<path fill-rule="evenodd" clip-rule="evenodd" d="M161.417 173.288L137.742 186.474L129.79 159.521L153.466 146.335L161.417 173.288Z" fill="#E1E3F6"/>
<path fill-rule="evenodd" clip-rule="evenodd" d="M163.104 169.21L139.428 182.397L131.476 155.444L155.152 142.258L163.104 169.21Z" fill="white"/>
<path fill-rule="evenodd" clip-rule="evenodd" d="M155.854 144.636L132.178 157.822L131.477 155.444L155.153 142.258L155.854 144.636Z" fill="#75D2FF"/>
<path fill-rule="evenodd" clip-rule="evenodd" d="M156.328 160.852C156.206 160.561 155.658 160.417 155.342 160.593L139.482 169.161C139.001 169.429 138.818 169.867 139.004 170.309C139.127 170.601 139.675 170.744 139.991 170.568L155.851 162C156.332 161.732 156.514 161.294 156.328 160.852Z" fill="#D7D0EB"/>
<path fill-rule="evenodd" clip-rule="evenodd" d="M157.223 163.796C157.101 163.505 156.552 163.361 156.236 163.537L140.377 172.105C139.895 172.373 139.713 172.811 139.899 173.253C140.021 173.545 140.57 173.688 140.886 173.512L156.745 164.944C157.227 164.676 157.409 164.238 157.223 163.796Z" fill="#D7D0EB"/>
<path fill-rule="evenodd" clip-rule="evenodd" d="M158.118 166.74C157.995 166.449 157.447 166.305 157.131 166.481L141.271 175.049C140.79 175.317 140.608 175.755 140.794 176.197C140.916 176.489 141.464 176.632 141.781 176.456L157.64 167.888C158.122 167.62 158.304 167.182 158.118 166.74Z" fill="#D7D0EB"/>
<path fill-rule="evenodd" clip-rule="evenodd" d="M150.006 159.41C148.9 162.078 146.288 163.53 144.171 162.652C142.054 161.775 141.234 158.901 142.34 156.234C143.446 153.566 146.058 152.115 148.175 152.992C150.292 153.869 151.112 156.743 150.006 159.41Z" fill="#75D2FF"/>
<path fill-rule="evenodd" clip-rule="evenodd" d="M243.381 106.524L248.646 105.587C250.149 105.464 251.492 104.295 252.27 102.149C253.724 98.1469 252.666 92.2647 249.907 89.0121C248.542 87.4033 247.017 86.7392 245.649 86.9626H245.647L245.626 86.9666C245.611 86.9686 245.596 86.9713 245.581 86.974L240.079 87.953L243.381 106.524Z" fill="#0099F7"/>
<path fill-rule="evenodd" clip-rule="evenodd" d="M236.71 91.3604C235.257 95.3632 236.315 101.245 239.075 104.497C241.834 107.751 245.248 107.143 246.702 103.14C248.155 99.138 247.097 93.2558 244.338 90.0032C241.579 86.7499 238.164 87.3575 236.71 91.3604Z" fill="white"/>
<path fill-rule="evenodd" clip-rule="evenodd" d="M211.394 262.796C220.559 262.452 244.778 253.965 252.923 233.598C262.952 208.516 271.47 123.77 228.419 132.252C218.605 134.185 207.559 141.017 204.565 152.051C199.192 171.852 197.963 174.67 204.325 185.912C217.589 209.351 209.231 211.724 183.501 217.392C153.813 223.933 171.52 264.292 211.394 262.796Z" fill="#F2DFFF"/>
<path fill-rule="evenodd" clip-rule="evenodd" d="M225.351 140.907C222.58 140.385 220.399 138.063 220.188 135.134L218.623 113.309C218.373 109.819 221.014 106.789 224.523 106.54C228.033 106.291 231.079 108.918 231.33 112.408L232.896 134.232C233.146 137.722 230.504 140.752 226.995 141.001C226.432 141.041 225.881 141.006 225.351 140.907Z" fill="#FFB67C"/>
<path fill-rule="evenodd" clip-rule="evenodd" d="M231.371 126.428C241.271 122.918 246.443 112.064 242.926 102.187C239.408 92.3092 228.531 87.147 218.632 90.6573C208.733 94.1677 203.56 105.021 207.078 114.899C210.595 124.776 221.472 129.938 231.371 126.428Z" fill="#FFCDA7"/>
<path fill-rule="evenodd" clip-rule="evenodd" d="M206.328 100.601C208.058 104.679 216.184 105.582 221.216 105.049C226.597 104.48 229.273 104.55 232.513 104.986C240.711 106.088 240.753 117.888 245.54 117.388C248.328 117.097 250.052 112.113 250.575 109.457C252.285 100.749 246.166 91.13 238.122 86.5888C236.274 85.5459 227.55 80.9455 218.383 84.7385C210.934 87.8195 204.36 95.9598 206.328 100.601Z" fill="#9013BA"/>
<path fill-rule="evenodd" clip-rule="evenodd" d="M222.749 83.111C234.903 80.5851 246.267 89.0739 250.983 97.079C255.899 105.422 249.751 108.754 254.601 115.327C260.495 123.316 262.792 123.4 265.68 131.598C269.075 141.232 262.022 143.423 267.854 153.591C272.674 161.996 276.311 160.786 278.885 167.947C281.734 175.871 278.263 187.419 270.142 192.269C258.488 199.228 242.105 189.506 237.204 179.061C233.912 172.046 236.576 164.79 234.103 156.959C231.881 149.92 231.483 148.371 221.884 142.311C214.561 137.689 228.419 123.214 222.744 117.403C217.835 112.378 203.143 106.584 204.677 100.072C206.828 90.9398 214.906 84.7414 222.749 83.111Z" fill="#D087FF"/>
<path fill-rule="evenodd" clip-rule="evenodd" d="M206.824 162.397C208.417 169.839 213.675 173.093 218.567 173.671C223.46 174.248 228.193 167.501 226.6 160.059C225.007 152.617 219.784 146.096 212.798 146.721C207.891 147.16 205.232 154.955 206.824 162.397Z" fill="#FFB67C"/>
<path fill-rule="evenodd" clip-rule="evenodd" d="M172 224C173.532 226.197 177.391 225.744 177.812 226C185.602 230.743 190.204 235.221 198.764 234.64C207.785 234.029 223.263 232.384 226.914 211.114C230.566 189.844 221.882 165.107 221.882 165.107L214.1 206.819L196.226 218.553L177.812 214.194L172 224Z" fill="#D7BAEA"/>
<path fill-rule="evenodd" clip-rule="evenodd" d="M202.457 105.17L206.742 101.595C206.752 101.586 206.764 101.576 206.776 101.566L206.793 101.552H206.794C207.87 100.68 209.523 100.504 211.508 101.23C215.523 102.697 219.372 107.295 220.106 111.5C220.5 113.754 219.918 115.437 218.675 116.287L214.575 119.708L202.457 105.17Z" fill="#0099F7"/>
<path fill-rule="evenodd" clip-rule="evenodd" d="M201.233 109.803C201.967 114.008 205.815 118.606 209.83 120.073C213.844 121.541 216.504 119.322 215.77 115.118C215.035 110.914 211.187 106.316 207.172 104.848C203.158 103.38 200.498 105.598 201.233 109.803Z" fill="#00DAEF"/>
<path fill-rule="evenodd" clip-rule="evenodd" d="M245.497 89.1004C245.497 89.1004 244.386 87.6536 243.129 87.103C243.129 87.103 239.926 82.7216 236.686 82.8025C233.447 82.8835 239.926 82.7216 239.926 82.7216L243.624 85.0725L245.579 88.1948L245.497 89.1004Z" fill="#535FE9"/>
<path fill-rule="evenodd" clip-rule="evenodd" d="M232.668 83.162C232.931 83.0621 233.19 82.969 233.447 82.8833C233.568 82.8428 233.686 82.8091 233.806 82.772C233.941 82.7301 234.077 82.6849 234.21 82.6471C234.352 82.6066 234.49 82.5736 234.629 82.5371C234.739 82.5095 234.849 82.4778 234.956 82.4521C235.123 82.4137 235.286 82.3819 235.449 82.3489C235.528 82.3333 235.607 82.3138 235.685 82.2996C235.868 82.2659 236.047 82.2396 236.226 82.2139C236.282 82.2058 236.34 82.1943 236.396 82.1869C236.592 82.1613 236.786 82.1431 236.978 82.1269C237.014 82.1235 237.051 82.1181 237.088 82.1147C237.289 82.0999 237.487 82.0911 237.683 82.0864C237.709 82.0857 237.735 82.083 237.761 82.0823C237.97 82.0783 238.175 82.081 238.378 82.0884C238.39 82.0884 238.402 82.0884 238.414 82.0884C238.626 82.0972 238.834 82.112 239.039 82.1323C239.041 82.1329 239.045 82.1329 239.047 82.1329C240.5 82.2814 241.782 82.7382 242.857 83.4717C244.587 84.6513 245.778 86.5488 246.279 89.0273L245.497 89.1002C243.812 84.0649 239.252 82.0506 232.668 84.5642C224.148 87.8167 216.271 96.9555 213.778 106.359L213.199 106.59C215.322 96.855 223.818 86.5407 232.668 83.162Z" fill="#0099F7"/>
<path fill-rule="evenodd" clip-rule="evenodd" d="M239.038 82.1326C238.834 82.1116 238.625 82.0968 238.415 82.0887C238.402 82.088 238.39 82.0887 238.379 82.088C238.175 82.0806 237.97 82.0786 237.762 82.0826C237.736 82.0833 237.709 82.0853 237.683 82.086C237.487 82.0914 237.289 82.0995 237.088 82.115C237.052 82.1177 237.014 82.1238 236.977 82.1265C236.785 82.1427 236.592 82.1616 236.396 82.1872C236.34 82.1946 236.282 82.2061 236.226 82.2142C236.047 82.2399 235.868 82.2662 235.685 82.2992C235.607 82.3141 235.528 82.333 235.449 82.3492C235.286 82.3816 235.123 82.4133 234.956 82.4524C234.849 82.4781 234.739 82.5098 234.63 82.5374C234.49 82.5732 234.351 82.6063 234.21 82.6468C234.077 82.6852 233.941 82.7298 233.806 82.7723C233.686 82.8094 233.568 82.8431 233.447 82.8829C233.19 82.9693 232.931 83.0618 232.668 83.1623C223.818 86.5403 215.321 96.8553 213.199 106.591C212.317 105.565 210.99 104.236 209.491 103.45C211.86 93.9273 220.162 84.024 228.798 80.727C232.785 79.2053 236.186 79.343 238.625 80.8039L238.627 80.8025L238.663 80.8248C238.69 80.8417 238.717 80.8592 238.744 80.8768L242.86 83.4687V83.4734C242.859 83.4727 242.858 83.472 242.857 83.4714C241.782 82.7385 240.501 82.2817 239.047 82.1332C239.045 82.1332 239.041 82.1326 239.038 82.1326Z" fill="#00DAEF"/>
<path fill-rule="evenodd" clip-rule="evenodd" d="M161.833 244.676C161.47 244.676 161.1 244.658 160.725 244.619C153.921 243.92 148.978 240.34 147.166 234.798C145.376 229.321 146.981 222.925 151.071 219.246L151.524 219.747C147.626 223.254 146.098 229.358 147.809 234.589C148.823 237.69 151.858 243.03 160.794 243.948C166.128 244.5 170.36 240.683 174.843 236.647C179.58 232.383 184.477 227.972 191.398 227.552C194.056 227.391 196.468 225.959 198.568 223.297C206.084 213.765 207.704 191.115 205.557 179.072C202.554 162.235 205.592 152.853 209.557 143.174C213.182 134.32 214.601 125.834 213.895 117.232L214.569 117.177C215.285 125.888 213.85 134.475 210.182 143.43C206.258 153.01 203.252 162.295 206.222 178.954C208.392 191.121 206.731 214.036 199.098 223.714C196.874 226.534 194.298 228.052 191.438 228.225C184.755 228.632 179.946 232.962 175.296 237.149C171.004 241.012 166.935 244.676 161.833 244.676Z" fill="#00DAEF"/>
<path fill-rule="evenodd" clip-rule="evenodd" d="M189.819 222.475C200.329 222.475 210.764 218.658 216.833 211.487C221.356 206.143 224.233 199.435 224.896 190.335C225.511 181.892 224.415 171.473 221.547 158.482C220.79 155.056 217.396 152.892 213.963 153.646C210.531 154.402 208.363 157.791 209.119 161.217C213.907 182.897 214.094 189.378 211.267 197.542C209.046 203.952 191.65 216.879 177.485 206.28C177.443 206.222 175 203.949 173.956 201.357C172.902 198.743 173.031 197.073 172.508 194.077C172.207 192.353 169.303 192.13 169.395 194.698C169.475 196.955 169.751 199.067 169.751 199.067C169.751 199.067 168.615 198.387 164.862 194.413C159.633 188.878 150.051 196.435 158.432 204.855C159.854 206.283 160.428 207.137 165.784 213.175C171.139 219.213 179.309 222.475 189.819 222.475Z" fill="#FFCDA7"/>
<path fill-rule="evenodd" clip-rule="evenodd" d="M402.704 181.544L402.038 181.427C404.754 165.965 400.672 158.28 400.63 158.204L401.223 157.879C401.397 158.196 405.465 165.821 402.704 181.544Z" fill="#535FE9"/>
<path fill-rule="evenodd" clip-rule="evenodd" d="M411.172 189.075C411.146 188.988 408.564 180.296 407.821 173.149C407.084 166.072 404.229 157.788 404.2 157.705L404.839 157.484C404.868 157.568 407.748 165.926 408.493 173.08C409.229 180.164 411.794 188.795 411.82 188.882L411.172 189.075Z" fill="#535FE9"/>
<path fill-rule="evenodd" clip-rule="evenodd" d="M412.396 188.978C412.396 188.482 411.993 188.08 411.496 188.08C411 188.08 410.597 188.482 410.597 188.978C410.597 189.474 411 189.876 411.496 189.876C411.993 189.876 412.396 189.474 412.396 188.978Z" fill="#535FE9"/>
<path fill-rule="evenodd" clip-rule="evenodd" d="M403.315 181.486C403.315 180.965 402.893 180.543 402.371 180.543C401.85 180.543 401.427 180.965 401.427 181.486C401.427 182.006 401.85 182.428 402.371 182.428C402.893 182.428 403.315 182.006 403.315 181.486Z" fill="#535FE9"/>
</svg>
